<svg width="18" height="17" viewBox="0 0 18 17" fill="none" xmlns="http://www.w3.org/2000/svg">
<g opacity="0.4">
<path fill-rule="evenodd" clip-rule="evenodd" d="M6.57946 7.69167C6.21487 7.69167 5.9266 7.975 5.9266 8.33333C5.9266 8.68333 6.21487 8.975 6.57946 8.975H11.6667V12.9583C11.6667 15 9.97941 16.6667 7.89365 16.6667H3.76453C1.68726 16.6667 0 15.0083 0 12.9667V3.70833C0 1.65833 1.69574 0 3.77301 0H7.91061C9.97941 0 11.6667 1.65833 11.6667 3.7V7.69167H6.57946ZM14.6919 5.45017L17.1252 7.87517C17.2502 8.00017 17.3169 8.1585 17.3169 8.3335C17.3169 8.50017 17.2502 8.66684 17.1252 8.7835L14.6919 11.2085C14.5669 11.3335 14.4002 11.4002 14.2419 11.4002C14.0752 11.4002 13.9085 11.3335 13.7835 11.2085C13.5335 10.9585 13.5335 10.5502 13.7835 10.3002L15.1169 8.97517H11.6669V7.69184H15.1169L13.7835 6.36684C13.5335 6.11684 13.5335 5.7085 13.7835 5.45851C14.0335 5.20017 14.4419 5.20017 14.6919 5.45017Z" fill="#030229"/>
</g>
</svg>
