<svg width="18" height="16" viewBox="0 0 18 16" fill="none" xmlns="http://www.w3.org/2000/svg">
<path opacity="0.3" d="M14.2423 9.95302C14.0105 10.1644 13.9041 10.47 13.9569 10.7698L14.7522 14.9127C14.8193 15.2638 14.6619 15.6192 14.3496 15.8221C14.0436 16.0326 13.6366 16.0579 13.3028 15.8895L9.34032 13.9443C9.20254 13.8753 9.04955 13.8382 8.89298 13.834H8.65052C8.56642 13.8458 8.48411 13.8711 8.40896 13.9098L4.44554 15.8642C4.24961 15.9568 4.02773 15.9897 3.81032 15.9568C3.28067 15.8625 2.92727 15.3876 3.01406 14.8866L3.81032 10.7437C3.8631 10.4414 3.75664 10.1341 3.52492 9.91934L0.294238 6.97217C0.0240452 6.72545 -0.0698959 6.35494 0.0535695 6.02065C0.173456 5.6872 0.479436 5.44385 0.848938 5.38911L5.29548 4.782C5.63367 4.74916 5.9307 4.55549 6.0828 4.26919L8.04214 0.488388C8.08867 0.404184 8.14861 0.326715 8.22108 0.261035L8.3016 0.202092C8.34365 0.158305 8.39196 0.122097 8.44564 0.0926254L8.54316 0.0589434L8.69526 0H9.07191C9.40831 0.0328399 9.70445 0.222301 9.85923 0.505229L11.8445 4.26919C11.9877 4.54454 12.2659 4.73568 12.5871 4.782L17.0336 5.38911C17.4094 5.43964 17.7234 5.68383 17.8478 6.02065C17.965 6.35831 17.8639 6.72881 17.5883 6.97217L14.2423 9.95302Z" fill="#B3B3BF"/>
</svg>
